Coordinates
version=1
nRows=16
nColumns=36
inDegrees=yes

Units are S.I. units (second, meters, Newtons, ...)
If the header above contains a line with 'inDegrees', this indicates whether rotational values are in degrees (yes) or radians (no).

endheader
time	pelvis_tilt	pelvis_list	pelvis_rotation	pelvis_tx	pelvis_ty	pelvis_tz	hip_flexion_r	hip_adduction_r	hip_rotation_r	knee_angle_r	knee_angle_r_beta	ankle_angle_r	subtalar_angle_r	mtp_angle_r	hip_flexion_l	hip_adduction_l	hip_rotation_l	knee_angle_l	knee_angle_l_beta	ankle_angle_l	subtalar_angle_l	mtp_angle_l	lumbar_extension	lumbar_bending	lumbar_rotation	arm_flex_r	arm_add_r	arm_rot_r	elbow_flex_r	pro_sup_r	arm_flex_l	arm_add_l	arm_rot_l	elbow_flex_l	pro_sup_l
      7.35000000	    -37.05450552	      2.81001511	     -2.43390182	      0.90254619	      0.72533515	      0.11728973	     92.64358621	    -14.55067147	     -1.17147301	     73.06042201	      1.27514492	     19.12684543	     -7.06738662	     -7.49999987	     92.71354835	     -6.31973054	      3.93922307	     75.44514001	      1.31676610	     21.98122028	    -14.54622520	     -7.49999987	    -23.38002860	      2.01918425	      9.31689339	     91.97498731	    -15.25205129	     85.52266033	    129.96278747	     94.44346736	     88.09868091	      1.97690269	     60.94155809	    119.99369893	    109.71536589
      7.36666670	    -36.50334391	      2.75481925	     -2.42366293	      0.90875267	      0.73386582	      0.12117995	     90.35860082	    -14.34050524	     -1.48584104	     70.57620351	      1.23178712	     18.47646891	     -6.79190329	     -7.49999987	     90.51330480	     -6.22787921	      3.89052716	     73.14611089	      1.27664047	     21.39902998	    -14.38584402	     -7.49999987	    -22.22161826	      1.96374230	      9.02662120	     91.12516053	    -13.96421740	     85.09835725	    131.09327830	     94.52111587	     87.49302473	      2.58913406	     61.91296641	    121.49270020	    109.69918130
      7.38333330	    -35.27949018	      2.63244567	     -2.45516647	      0.92196943	      0.74395377	      0.12917978	     87.17575574	    -13.92745119	     -1.68986627	     68.03457924	      1.18742741	     17.83323946	     -7.19718201	     -7.49999987	     87.41414361	     -6.15664695	      3.99375608	     70.74827671	      1.23479037	     20.74362828	    -14.95480563	     -7.49999987	    -21.85658316	      1.89476376	      8.25196334	     88.97104878	    -11.60726457	     82.51400828	    130.39645839	     94.87852741	     86.71405251	      0.98463356	     61.67534611	    124.14438200	    109.51433401
      7.40000000	    -34.50619705	      2.67038202	     -2.42966790	      0.92194312	      0.75801766	      0.12838782	     84.55029376	    -13.56481958	     -1.64395755	     65.49607868	      1.14312222	     17.23098922	     -7.36550448	     -7.49999987	     84.74454359	     -6.11964075	      3.83439333	     68.26338756	      1.19142087	     20.08249639	    -15.00073340	     -7.49999987	    -21.04065372	      1.87790969	      7.36526041	     88.14504875	    -10.31573010	     81.56814895	    130.29450582	    101.72725003	     85.84906141	     -0.21727561	     61.81629604	    125.43098812	    109.34279745
      7.41666670	    -33.64569759	      2.65125662	     -2.43245683	      0.92272297	      0.77498287	      0.12885873	     81.65701450	    -13.18021836	     -1.69829454	     62.68042751	      1.09397984	     16.42273763	     -7.56141449	     -7.49999987	     81.92663431	     -6.12566126	      3.65718132	     65.59791353	      1.14489957	     19.21896802	    -15.06686002	     -7.49999987	    -20.53859562	      1.70081777	      6.92608802	     87.16673424	     -9.73326125	     82.68180791	    130.30610605	    102.09779395	     85.12662652	     -0.48771465	     62.27744872	    125.24602953	    109.67430840
      7.43333330	    -32.81359982	      2.57043858	     -2.51363352	      0.93457836	      0.78497891	      0.13764859	     78.59595404	    -12.62494518	     -1.80100663	     59.75239547	      1.04287604	     15.94559652	     -7.54418415	     -7.49999987	     78.97884289	     -6.31490169	      3.50094499	     62.85404063	      1.09700996	     18.58074630	    -14.89690963	     -7.49999987	    -19.38987683	      1.27474736	      6.70711897	     85.39061531	     -8.65294048	     82.13636765	    130.56797282	    102.12933901	     84.19291105	     -0.98163693	     62.85577429	    125.63038469	    109.66329625
      7.45000000	    -31.46108066	      2.44169992	     -2.63971310	      0.94058774	      0.79090019	      0.14120793	     75.20868520	    -11.93318233	     -1.64599608	     57.16671990	      0.99774748	     15.43580640	     -7.98859179	     -7.49999987	     75.59805433	     -6.57788148	      3.36254319	     60.31094152	      1.05262450	     17.83041883	    -15.04080802	     -7.49999987	    -18.48893288	      0.76610464	      5.96228936	     83.93741098	     -7.12395610	     80.40857457	    130.42808029	    100.74718093	     84.26378632	     -1.28930913	     62.24816204	    126.01304694	    108.56162630
      7.46666670	    -30.47613386	      2.40896319	     -2.77890334	      0.94627305	      0.79987755	      0.13858554	     72.30849315	    -11.32653015	     -1.45585127	     54.79502870	      0.95635366	     15.20250976	     -8.14939970	     -7.49999987	     72.64608788	     -6.84029251	      3.05658183	     57.90640411	      1.01065741	     17.39444009	    -14.70707623	     -7.49999987	    -17.10270181	      0.25657621	      5.16895878	     82.49547680	     -6.67161700	     78.88352062	    130.38187697	    101.22653330	     83.88320869	     -1.32604249	     61.64694034	    125.52174773	    108.45674532
      7.48333330	    -29.57296151	      2.46245512	     -2.95534649	      0.95330944	      0.81422131	      0.13632567	     69.50172383	    -10.84791703	     -1.26432108	     52.36958416	      0.91402167	     14.81519025	     -8.18974043	     -7.49999987	     69.69691226	     -7.07085208	      2.56664053	     55.38358853	      0.96662597	     16.80538891	    -14.40822679	     -7.49999987	    -15.85177887	     -0.34392077	      4.61160988	     79.94315025	     -7.13339771	     77.82367382	    130.72894997	    105.86434525	     82.34871673	     -1.46924578	     61.57814802	    124.41870034	    109.08427572
      7.50000000	    -28.73055749	      2.56033392	     -3.17098051	      0.96557779	      0.82729136	      0.13809800	     66.51436436	    -10.45657401	     -1.15339998	     49.66592353	      0.86683389	     14.42146846	     -8.13506968	     -7.49999987	     66.50446038	     -7.19829117	      2.12216775	     52.55488513	      0.91725578	     16.16657947	    -14.14822401	     -7.49999987	    -14.29604311	     -0.82018505	      4.08142506	     76.81429977	     -6.55092239	     77.03836105	    130.29961206	    106.32870957	     79.75151642	     -1.56384280	     61.36488169	    124.52084645	    108.80110790
      7.51666670	    -27.93381338	      2.66474858	     -3.40385350	      0.97358794	      0.84139331	      0.13601550	     63.37560728	    -10.19445541	     -1.22709010	     46.72541788	      0.81551239	     13.94513832	     -7.81463204	     -7.49999987	     63.12203385	     -7.29974530	      1.53355104	     49.39171424	      0.86204804	     15.46744739	    -13.69297191	     -7.49999987	    -12.71778328	     -1.10369024	      3.40395122	     73.56576757	     -6.42215698	     76.42080677	    130.01306710	    106.32607656	     77.01107990	     -1.55385150	     61.83382747	    124.54351408	    108.48539320
      7.53333330	    -26.68382961	      2.82002981	     -3.75946563	      0.98557037	      0.85146902	      0.13777219	     59.74345482	     -9.90612257	     -1.18365975	     43.72441709	      0.76313504	     13.30224598	     -7.69737308	     -7.49999987	     59.09883260	     -7.35591901	      0.92759201	     45.99306008	      0.80273033	     14.59528478	    -13.54055717	     -7.49999987	    -11.40342976	     -1.54721884	      2.72949064	     69.63382479	     -5.31917243	     74.34837163	    129.61104091	    107.09943165	     74.34217915	     -1.76379516	     60.70300292	    124.47043604	    108.38922826
      7.55000000	    -26.06709860	      2.97904374	     -4.06935905	      0.99289105	      0.85582142	      0.13555885	     57.28835433	     -9.74451434	     -1.14681046	     41.51063619	      0.72449728	     12.82424644	     -7.24719765	     -7.49999987	     56.23298304	     -7.41111078	      0.23925598	     43.33333872	      0.75630944	     14.20127278	    -12.98951528	     -7.49999987	     -9.25311533	     -1.83851307	      1.94993871	     67.21347626	     -4.89960666	     73.55507361	    130.29230322	    107.34995811	     72.35944128	     -2.16489855	     60.52809348	    125.07358864	    108.34705929
      7.56666670	    -24.83812468	      3.22887589	     -4.34798423	      0.99938332	      0.86496066	      0.13371401	     54.41700121	     -9.76994177	     -0.98719976	     39.57175709	      0.69065745	     12.59503052	     -7.02623686	     -7.49999987	     52.88962556	     -7.25902407	     -0.48943402	     40.80177015	      0.71212523	     14.10642852	    -12.58048290	     -7.49999987	     -8.12421249	     -1.99319763	      1.40585762	     65.36976795	     -4.41577391	     72.53108474	    130.78240991	    110.71846828	     69.95110735	     -2.53398083	     59.91731511	    126.30549444	    108.87813347
      7.58333330	    -24.11955772	      3.38704272	     -4.60557290	      1.00726226	      0.87535802	      0.13739077	     51.89737502	     -9.71903986	     -1.06019568	     37.35396057	      0.65194960	     12.22716246	     -6.87105763	     -7.49999987	     50.03519377	     -7.17671664	     -1.11948184	     38.09088165	      0.66481130	     13.66757099	    -12.21630157	     -7.49999987	     -6.53402844	     -2.15875139	      1.18105634	     63.31125978	     -3.88722710	     72.21284053	    131.10018201	    110.71869250	     67.77831754	     -2.39463978	     61.05140126	    128.05858342	    108.87948032
      7.60000000	    -22.77619165	      3.16124727	     -4.87554235	      1.01960305	      0.89193597	      0.14616824	     47.74916105	     -9.27810993	     -1.51502524	     33.71862925	      0.58850110	     11.48555239	     -6.75143862	     -7.49999987	     45.76900548	     -7.32519872	     -1.61103696	     34.21065873	      0.59708863	     12.57692585	    -11.78607994	     -7.49999987	     -5.87155367	     -2.06587406	      1.27664349	     60.88994570	     -2.84457180	     72.70209592	    130.35250840	    110.68187965	     64.29285453	     -3.49405048	     62.34521366	    128.97361262	    109.53955536
